<?xml version="1.0" encoding="utf-8"?>
<!-- Generator: Adobe Illustrator 13.0.0, SVG Export Plug-In . SVG Version: 6.00 Build 14948)  -->
<!DOCTYPE svg PUBLIC "-//W3C//DTD SVG 1.1//EN" "http://www.w3.org/Graphics/SVG/1.1/DTD/svg11.dtd">
<svg version="1.1" id="Calque_1" xmlns="http://www.w3.org/2000/svg" xmlns:xlink="http://www.w3.org/1999/xlink" x="0px" y="0px"
	 width="1500px" height="50px" viewBox="0 0 1500 50" enable-background="new 0 0 1500 50" xml:space="preserve">
<line fill="#FFFFFF" x1="51" y1="-464" x2="51" y2="516"/>
<line fill="#FFFFFF" x1="1451" y1="516" x2="1451" y2="-464"/>
<line fill="none" x1="51" y1="516" x2="51" y2="-464"/>
<line fill="none" x1="1451" y1="-464" x2="1451" y2="516"/>
<path fill-rule="evenodd" clip-rule="evenodd" d="M1231.781,16.641c-1.883,0.068-4.512-0.194-4.983,0.545
	c5.338,0.098,10.723,0.21,16.121,0.285c12.017,0.168,24.056,0.322,36.094,0.466c9.173,0.11,18.353,0.167,27.487,0.298
	c11.441,0.156,22.845,0.367,34.263,0.544c3.043,0.046,6.211,0.152,9.164,0.049c3.981-0.137,7.646,0.617,11.604,0.103
	c3.235,0.514,7.253,0.453,10.982,0.577c6.16,0.204,12.363,0.359,18.537,0.545c1.352,0.041,2.696,0.109,3.967,0.207
	c2.955,0.227,3.634,0.479,2.378,1.07c-1.478,0.696-3.384,1.352-5.007,2.037c-1.994,0.842-5.267,1.517-7.593,2.307
	c-1.795,0.6-4.395,0.776-7.356,0.776c-13.293,0.009-26.58,0.005-39.881-0.046c-11.699-0.04-23.383-0.131-35.066-0.23
	c-13.855-0.115-27.681-0.279-41.507-0.396c-6.241-0.055-12.511-0.036-18.759-0.07c-8.752-0.05-17.497-0.123-26.256-0.175
	c-5.819-0.03-11.654-0.024-17.475-0.062c-9.188-0.06-18.353-0.155-27.511-0.214c-14.417-0.095-28.812-0.154-43.22-0.26
	c-10.701-0.082-21.366-0.239-32.068-0.319c-9.734-0.073-19.446-0.073-29.18-0.127c-7.194-0.043-14.38-0.134-21.596-0.171
	c-8.56-0.045-17.097-0.049-25.656-0.094c-10.665-0.055-21.315-0.158-31.957-0.195c-10.665-0.035-21.315-0.006-31.974-0.035
	c-8.403-0.029-16.794-0.129-25.169-0.153c-13.301-0.043-26.588-0.03-39.874-0.069c-6.433-0.019-12.851-0.111-19.269-0.156
	c-1.367-0.012-2.727,0.024-4.092,0.024c-4.077-0.003-8.146-0.034-12.217-0.02c-4.268,0.015-8.536,0.096-12.813,0.091
	c-8.523-0.011-17.024-0.098-25.509-0.086c-8.856,0.01-17.697,0.101-26.529,0.158c-0.392,0-0.761,0.019-1.16,0.019
	c-10.096-0.013-20.206-0.03-30.295-0.034c-3.922,0-7.829,0.035-11.75,0.058c-11.493,0.073-22.962,0.149-34.454,0.213
	c-14.763,0.078-29.542,0.104-44.313,0.227c-14.453,0.126-28.914,0.174-43.361,0.408c-12.613,0.206-25.317,0.195-37.976,0.301
	c-6.041,0.051-12.082,0.155-18.117,0.225c-9.29,0.103-18.611,0.183-27.902,0.299c-11.499,0.15-22.976,0.334-34.453,0.494
	c-16.492,0.229-33.013,0.416-49.505,0.69c-12.814,0.21-25.568,0.539-38.383,0.778c-6.247,0.115-12.555,0.109-18.811,0.23
	c-7.739,0.149-15.443,0.398-23.175,0.561c-8.752,0.183-17.518,0.304-26.263,0.471c-13.028,0.246-26.049,0.467-39.032,0.778
	c-12.187,0.286-24.314,0.679-36.47,1.015c-10.85,0.299-21.684,0.575-32.511,0.883c-7.496,0.215-14.992,0.463-22.467,0.709
	c-0.48,0.01-0.849,0.133-1.285,0.205c-1.861-0.08-3.626-0.105-4.889,0.439c2.267-0.041,4.594,0.232,4.764-0.465
	c7.91,0.272,10.443,0.217,18.205-0.354c0.665-0.051,1.499-0.009,2.267-0.015c7.858-0.04,15.577-0.283,23.545,0.265
	c4.483,0.31,10.066,0.084,15.067-0.045c5.731-0.153,11.307-0.521,17.038-0.685c4.749-0.137,9.601-0.123,14.402-0.162
	c1.698-0.016,3.389,0.08,4.165-0.422c0.229-0.148,2.703-0.205,4.165-0.217c6.411-0.058,12.918-0.455,19.173,0.447
	c0.577-0.383,0.82-0.556,1.263-0.867c7.016-0.063,14.284-0.129,21.551-0.19c0.93-0.009,2.46-0.046,2.74,0.045
	c3.427,1.211,8.826,0.317,11.994,0.563c1.721-0.338,2.637-0.681,3.737-0.705c6.367-0.147,12.784-0.213,19.58-0.102
	c-0.85,0.137-1.707,0.277-3.154,0.508h17.644c0.029-0.039,0.081-0.08,0.14-0.121c-1.551-0.051-3.087-0.097-4.616-0.146
	c-0.029-0.077-0.066-0.152-0.081-0.228c3.981-0.133,7.954-0.263,12.636-0.418c-0.79,0.348-1.144,0.506-1.595,0.705h6.219
	c-1.027-0.197-1.758-0.334-2.541-0.482c0.539-0.07,0.842-0.139,1.153-0.143c14.992-0.113,29.999-0.234,44.992-0.33
	c14.387-0.086,28.788-0.145,43.182-0.221c2.497-0.014,5.141-0.143,6.552,0.48c0.228,0.106,1.609,0.229,1.935,0.185
	c2.688-0.345,5.221,0.091,7.821,0.015c3.582-0.111,7.194-0.193,11.344-0.299c0.037-0.061,0.17-0.263,0.288-0.457
	c8.648-0.279,13.398-0.201,15.65,0.122c2.777-0.088,4.712-0.243,6.484-0.188c2.881,0.09,6.286-0.098,8.494,0.547
	c0.302,0.094,3.611-0.01,3.958-0.16c1.477-0.67,4.033-0.465,6.389-0.418c2.26,0.046,4.498,0.152,6.758,0.201
	c1.639,0.033,3.479,0.171,4.638-0.271c0.192-0.078,2.297-0.074,2.88,0.034c3.427,0.636,3.228,0.567,7.563,0.312
	c4.439-0.269,9.166-0.467,13.796-0.481c12.104-0.048,24.225,0.039,36.336,0.036c13.582-0.006,27.179-0.078,40.783-0.066
	c13.058,0.01,26.13,0.092,39.203,0.137c7.607,0.023,15.252,0.016,22.872,0.051c8.981,0.041,17.948,0.132,26.906,0.166
	c15.221,0.055,30.437,0.066,45.657,0.119c6.374,0.022,12.763,0.117,19.136,0.146c7.327,0.031,14.646-0.002,21.972,0.044
	c6.212,0.037,12.423,0.164,18.656,0.21c14.417,0.109,28.862,0.186,43.286,0.288c3.272,0.024,6.551,0.124,9.854,0.134
	c1.809,0.006,3.647-0.104,6.085-0.182c-0.872-0.283-1.308-0.428-1.729-0.566c0.317-0.023,0.664-0.074,0.982-0.066
	c13.818,0.15,27.644,0.287,41.462,0.486c2.143,0.03,5.038,0.225,6.056,0.541c1.478,0.461,3.338,0.502,5.348,0.525
	c7.156,0.083,14.336,0.125,21.507,0.195c1.972,0.015,3.655-0.059,5.539-0.516c-3.841-0.082-6.854-0.142-9.845-0.205
	c0.022-0.047,0.022-0.094,0.022-0.143c6.454,0.066,12.924,0.188,19.379,0.188c6.115,0,12.245,0.33,18.405-0.188
	c1.905-0.161,4.956-0.135,7.629,0.266c2.179,0.334,5.9,0.262,8.988,0.338c4.032,0.09,8.103,0.168,12.17,0.209
	c1.67,0.019,3.487-0.02,5.03-0.142c2.792-0.213,5.214-0.425,7.727,0.161c0.782,0.177,3.168,0.236,4.379,0.134
	c6.263-0.517,12.688-0.284,19.024-0.264c4.181,0.015,8.338,0.198,12.512,0.209c10.693,0.034,21.381,0.012,32.385,0.012
	c-4.564,2.974-14.128,5.255-21.47,7.912c-5.117-0.085-10.141-0.17-15.132-0.249c-6.189-0.094-12.386-0.176-18.582-0.277
	c-11.647-0.199-23.272-0.447-34.927-0.615c-11.455-0.162-22.946-0.242-34.387-0.383c-13.08-0.16-26.152-0.346-39.217-0.524
	c-8.338-0.112-16.691-0.271-25.06-0.347c-15.154-0.138-30.324-0.215-45.502-0.334c-18.833-0.149-37.695-0.309-56.528-0.473
	c-11.875-0.105-23.707-0.261-35.562-0.339c-12.031-0.077-24.085-0.073-36.123-0.136c-15.413-0.084-30.842-0.23-46.27-0.288
	c-10.451-0.039-20.901,0.062-31.374,0.044c-10.672-0.02-21.373-0.145-32.075-0.152c-18.566-0.014-37.149,0.032-55.738,0.045
	c-2.267,0.002-4.535-0.056-6.802-0.056c-11.662,0-23.316-0.015-34.963,0.026c-8.656,0.031-17.29,0.166-25.945,0.205
	c-8.412,0.037-16.817-0.006-25.229,0.028c-18.338,0.069-36.684,0.166-55.022,0.257c-13.664,0.067-27.319,0.109-40.967,0.227
	c-18.14,0.152-36.263,0.386-54.402,0.539c-18.317,0.164-36.64,0.25-54.963,0.408c-14.52,0.125-29.026,0.307-43.56,0.463
	c-12.444,0.132-24.911,0.264-37.37,0.384c-11.67,0.114-23.339,0.211-35.001,0.313c-19.313,0.16-38.626,0.31-57.939,0.48
	c-12.872,0.111-25.746,0.309-38.626,0.359c-14.963,0.06-29.933,0.041-44.815-0.424c-6.698-0.209-8.206-0.906-4.609-2.08
	c1.226-0.396,1.869-0.875,3.294-1.234c1.366-0.344,3.227-0.678,5.229-0.842c2.984-0.248,6.263-0.351,9.439-0.496
	c4.897-0.235,9.815-0.457,14.734-0.67c12.112-0.527,24.18-1.1,36.344-1.559c13.899-0.523,27.895-0.938,41.846-1.408
	c10.665-0.357,21.256-0.799,31.972-1.076c10-0.258,20.141-0.31,30.163-0.526c4.372-0.095,8.596-0.401,12.939-0.55
	c4.616-0.16,9.276-0.246,13.907-0.379c2.88-0.082,5.709-0.217,8.582-0.28c7.711-0.181,15.406-0.329,23.117-0.489
	c0.981-0.018,2.067,0.008,2.909-0.066c8.826-0.782,18.287-0.963,27.666-1.229c0.724-0.018,1.404-0.082,2.977-0.177
	c-1.367-0.142-1.973-0.264-2.622-0.267c-5.325-0.024-10.695-0.046-16.02-0.033c-16.602,0.036-33.197,0.106-49.807,0.136
	c-16.034,0.031-32.075,0.058-48.124,0.027c-13.479-0.023-26.964-0.13-40.45-0.188c-6.647-0.03-13.309,0.012-19.949-0.051
	c-14.231-0.144-28.478-0.282-42.673-0.52c-16.522-0.273-32.991-0.66-48.988-1.581c-3.826-0.219-7.313-0.676-10.887-1.019
	c0.363-0.458,0.54-0.766,0.872-1.067c1.359-1.195,3.412-1.453,9.394-1.253c10.783,0.359,21.544,0.733,32.363,1.025
	c3.944,0.11,8.073-0.037,12.12-0.005c4.084,0.026,8.169,0.154,12.245,0.19c1.345,0.01,3.649,0.232,3.73-0.37
	c0-0.04,1.33-0.107,2.016-0.098c4.084,0.046,8.161,0.104,12.231,0.181c0.657,0.008,1.426,0.097,1.898,0.193
	c3.087,0.639,3.449,0.657,7.703,0.159h-5.502c-0.023-0.101-0.03-0.195-0.037-0.295c1.987-0.003,4.025-0.027,6.004-0.006
	c7.962,0.078,15.923,0.224,23.892,0.251c9.941,0.031,19.89-0.027,29.853-0.045c2.356-0.009,4.704-0.009,7.053-0.023
	c6.794-0.046,13.611-0.162,20.421-0.137c7.104,0.026,14.224,0.185,21.329,0.291c0.584,0.006,1.248,0.079,1.677,0.04
	c7.592-0.721,16.108-0.095,23.818-0.657c0.9-0.068,2.193,0.126,3.316,0.134c3.855,0.012,7.887,0.133,11.566-0.037
	c6.122-0.288,12.215-0.419,18.404-0.334c5.377,0.072,10.953-0.301,16.123,0.276c6.425-0.756,14.225,0.301,20.546-0.626
	c0.591-0.084,1.492-0.116,2.26-0.118c7.504-0.021,15.045-0.028,22.585-0.055c2.703-0.012,5.414-0.088,8.124-0.11
	c1.862-0.012,3.715-0.128,5.488,0.228c0.716,0.139,2.872,0.024,4.35-0.018c4.8-0.137,9.586-0.346,14.401-0.429
	c4.417-0.079,8.907-0.024,13.338-0.034c1.95-0.005,3.553-0.023,5.119-0.4c2.053-0.492,7.304-0.468,10.125-0.117
	c3.449,0.433,6.854,0.785,11.234,0.488c1.935-0.134,4.283-0.05,6.417-0.034c11.389,0.091,22.637-0.271,33.974-0.359
	c1.02-0.009,2.031-0.233,3.132-0.374c4.452,0.751,10.243,0.052,15.576,0.362c-0.798-0.176-1.604-0.355-2.43-0.541
	c2.769-0.669,4.446,0.401,6.905,0.158c4.291,0.599,9.076,0.352,13.685,0.298c2.46-0.028,5.658-0.049,7.127-0.349
	c1.648-0.338,3.317-0.311,5.052-0.417c2.991-0.182,5.598-0.149,7.866,0.386c0.686,0.155,2.355,0.14,3.589,0.205
	c0.258-0.077,0.554-0.157,0.835-0.236c-0.732-0.057-1.492-0.118-2.689-0.214c2.644-0.405,5.65-0.457,7.416-0.227
	c5.442,0.716,11.58,0.32,16.92,0.673c1.359-0.319,2.215-0.699,3.522-0.779c1.012-0.057,2.756,0.216,3.87,0.409
	c2.342,0.394,4.719,0.413,7.667,0.312c4.401-0.143,8.921-0.143,13.374-0.216c2.283-0.036,4.558-0.095,6.921-0.347
	c-1.094-0.084-2.171-0.169-3.589-0.28c3.448-0.057,6.654-0.139,9.867-0.146c0.96,0,1.891,0.229,2.895,0.323
	c1.071,0.103,2.348,0.264,3.331,0.219c0.819-0.036,1.337-0.337,2.378-0.636h6.816v0.654h10.887c0.642-0.556,2.267-0.812,5.613-0.766
	c6.159,0.089,12.378,0.024,19.225,0.024c-0.717,0.15-1.234,0.256-1.736,0.363c0.11,0.046,0.206,0.093,0.31,0.142
	c2.016-0.173,4.04-0.343,6.056-0.516c0.111,0.032,0.214,0.066,0.31,0.099c-0.561,0.104-1.137,0.208-1.728,0.314
	c4.18,0.243,4.225,0.24,6.004-0.53c1.913-0.197,4.055,0.876,5.886-0.029c0.045-0.02,0.732-0.007,1.012,0.026
	c2.91,0.384,5.119,0.533,8.759,0.022c2.43-0.343,7.069-0.127,10.672-0.046c2.394,0.053,4.676,0.308,7.416,0.503
	c0.339-0.221,0.598-0.384,0.997-0.627c3.227,0.243,6.75-0.122,10.192,0.405c1.713,0.261,5.17,0.047,7.844,0.054
	c6.145,0.012,12.281,0.039,18.434,0.022c1.358-0.007,2.718-0.197,4.07-0.296c3.861-0.276,7.443-0.778,11.623,0.027
	c1.448,0.28,5.009,0.386,7.149-0.231c1.552-0.441,3.982-0.395,6.374-0.213c5.776,0.444,11.847,0.558,17.991,0.558
	c0.909,0,1.979-0.058,2.651-0.171c1.352-0.225,2.217-0.374,3.693,0.008c0.369,0.098,2.799-0.056,4.113-0.176
	c4.069-0.368,18.176-0.641,21.95-0.389c1.735,0.119,3.411,0.113,4.461-0.048c4.615,0.97,10.539,0.253,15.856,0.441
	c0.348,0.012,0.775-0.295,1.418-0.378c3.028-0.382,6.196-0.246,9.778,0.38c0.635-0.158,1.226-0.449,1.913-0.461
	c4.631-0.083,9.283-0.117,13.922-0.134c1.514-0.007,3.855-0.179,3.677,0.44c-0.014,0.037,0.525,0.114,0.82,0.116
	c3.051,0.051,6.078,0.148,9.122,0.13c5.988-0.036,11.993-0.139,17.991-0.197c1.145-0.012,2.304,0.065,3.463,0.094
	c3.435,0.097,3.435,0.091,8.685-0.55c0.592-0.07,1.514-0.052,2.275-0.052c6.035-0.005,12.098-0.005,18.176,0.092
	c-2.201,0.067-4.431,0.127-6.639,0.194c6.417,0.673,13.212-0.17,19.578,0.498c0.073-0.108,0.17-0.218,0.259-0.328
	c-1.499-0.112-3.006-0.228-4.483-0.34c56.307-0.061,112.607,0.124,168.943,0.355c0.096-0.091,0.17-0.181,0.281-0.272
	c-1.211-0.187-2.438-0.374-3.649-0.56l-0.118,0.021c3.036-0.052,6.086-0.121,9.136-0.152c1.861-0.018,3.591,0.088,5.111-0.34
	c0.479-0.14,5.119,0.034,5.237,0.161c0.472,0.531,2.304,0.359,3.574,0.371c5.856,0.045,11.705,0.039,17.541,0.082
	c2,0.015,4.002,0.118,5.907,0.334h-22.747c3.655,0.651,8.086,0.389,12.143,0.492c4.431,0.114,8.965,0.095,13.447,0.109
	c4.396,0.016,8.805,0.005,13.442-0.069c-3.7-0.173-7.393-0.346-11.1-0.523c-0.016-0.04-0.016-0.075-0.023-0.115h17.157
	c0.244-0.338,0.406-0.584,0.576-0.819c0.517-0.03,0.968-0.087,1.197-0.063c2.162,0.23,5.619,0.1,6.019,0.86
	c0.029,0.07,1.233,0.165,1.913,0.168c4.173,0.015,8.359,0.009,13.914,0.009c-2.217-0.165-3.19-0.234-4.129-0.305
	c1.839-0.039,3.774-0.352,5.207,0.213c0.996,0.407,3.205,0.316,5.207,0.321c6.492,0.02,12.976,0.081,19.476,0.145
	c0.31,0.003,0.576,0.166,0.856,0.259L1231.781,16.641z M346.496,24.631c6.72,0.848,12.422-0.051,18.161,0H346.496z M1119.293,15.951
	c2.718,0.56,5.48,0.22,8.265,0.243v-0.243H1119.293z M661.805,28.928c-0.096,0.074-0.199,0.146-0.303,0.22
	c1.256,0.026,2.526,0.054,3.804,0.084c0.022-0.042,0.059-0.082,0.088-0.124C664.198,29.047,663.009,28.989,661.805,28.928"/>
</svg>
